<?xml version="1.0"?><svg width="931" height="606" xmlns="http://www.w3.org/2000/svg">
 <g>
  <title>Layer 1</title>
  <path d="m173.75,51l-0.75,4l-1,11.5q-1,11.5 -2,11.5q-1,0 -2,9.5q-1,9.5 -2,9.5q-1,0 -1,5.5l0,5.5l-5,-1l-5,-1l-0.5,-1l-0.5,-1l-20,-0.75q-20,-0.75 -25.5,-1.75q-5.5,-1 -14,-2.25l-8.5,-1.25l-1,-1l-1,-1l0,-5l0,-5l-1,-0.25q-1,-0.25 -2.5,-1.5l-1.5,-1.25l-1.5,-2q-1.5,-2 -4,-3.25l-2.5,-1.25l-0.75,-2.25q-0.75,-2.25 -1.5,-17q-0.75,-14.75 -0.25,-15.5q0.5,-0.75 2.25,-5.25l1.75,-4.5l0.25,1q0.25,1 3.5,2.5q3.25,1.5 8,4.25q4.75,2.75 8.5,4.5q3.75,1.75 5,6.25l1.25,4.5l1,0q1,0 0.25,-10.5q-0.75,-10.5 0,-12.5l0.75,-2l9.5,1q9.5,1 9.5,2q0,1 7.25,2.5q7.25,1.5 7.5,1.75q0.25,0.25 8.75,2.25q8.5,2 18,4q9.5,2 11.25,2.75l1.75,0.75l-0.75,4z" id="path2"/>
  <path d="m73.5,81.25l5.5,1.75l1.5,1.25q1.5,1.25 2.5,1.5l1,0.25l0,5l0,5l1,1l1,1l8.5,1.25q8.5,1.25 14,2.25q5.5,1 25.5,1.75l20,0.75l0.5,1l0.5,1l0,1l0,1l5,1q5,1 6,3l1,2l-1.5,4.75q-1.5,4.75 -4,9q-2.5,4.25 -4.5,5.25q-2,1 -3,3l-1,2l1,8.5q1,8.5 0,8.5q-1,0 -2,10.5q-1,10.5 -2,10.5q-1,0 -2.5,6.25l-1.5,6.25l-1.5,0.25l-1.5,0.25l-0.5,-1l-0.5,-1l-3.5,0.25q-3.5,0.25 -5.5,-0.25q-2,-0.5 -15.5,-3.25l-13.5,-2.75l0,-2l0,-2l-7.5,-1.5q-7.5,-1.5 -7.5,-2.5q0,-1 -8,-2.25q-8,-1.25 -8.5,-1.75q-0.5,-0.5 -13,-2.75l-12.5,-2.25l-4,-1l-4,-1l0.5,-9.5l0.5,-9.5l2.5,-1.5q2.5,-1.5 3.5,-4.5q1,-3 2,-3q1,0 3,-5.5q2,-5.5 3,-5.5l1,0l0.25,-4q0.25,-4 3.25,-11q3,-7 6,-17.5q3,-10.5 3.25,-10.75l0.25,-0.25l5.5,1.75z" id="path4"/>
  <path d="m43,164l4,0l12.5,2.25q12.5,2.25 13,2.75q0.5,0.5 8.5,1.75q8,1.25 8,2.25q0,1 7.5,2.5l7.5,1.5l0,2l0,2l-2,5q-2,5 -3,14.5q-1,9.5 -2,9.5q-1,0 -2,9.5q-1,9.5 -2,9.5q-1,0 -2,7.5l-1,7.5l1,0q1,0 2.75,3.5q1.75,3.5 3.5,4.5q1.75,1 2.75,3.75q1,2.75 2,3q1,0.25 2,3.75q1,3.5 2,3.5q1,0 1,2l0,2l3.5,2q3.5,2 4.5,5q1,3 2,3q1,0 2,3.5q1,3.5 2,3.5q1,0 1,2l0,2l3,2.25q3,2.25 5.25,5.5q2.25,3.25 2.5,5.25l0.25,2l2,1q2,1 3,4q1,3 3.25,5q2.25,2 6.5,8.5q4.25,6.5 5.25,6.5q1,0 2.5,2l1.5,2l0.5,-1.5l0.5,-1.5l0.5,0.25l0.5,0.25l-0.25,0.25q-0.25,0.25 0.75,9.25q1,9 1.5,11l0.5,2l0.25,2q0.25,2 -2,3q-2.25,1 -5.75,7.5l-3.5,6.5l0.75,6l0.75,6l-1,0.5l-1,0.5l-7.5,0.25q-7.5,0.25 -14.5,-1q-7,-1.25 -7,-2.25l0,-1l-7.5,0l-7.5,0l-0.25,-4.5q-0.25,-4.5 0,-5.75l0.25,-1.25l-2.25,-4.75q-2.25,-4.75 -4.5,-8.25q-2.25,-3.5 -5.25,-4.5q-3,-1 -3.25,-3.5q-0.25,-2.5 -0.5,-2.75q-0.25,-0.25 -1.75,-1.5l-1.5,-1.25l-2,-0.25q-2,-0.25 -3.75,-2q-1.75,-1.75 -6,-5q-4.25,-3.25 -6,-2.5l-1.75,0.75l-0.25,-2q-0.25,-2 -4.25,-3l-4,-1l-0.25,-5q-0.25,-5 -1.75,-9.5q-1.5,-4.5 -4,-10.5q-2.5,-6 -6.75,-9.25l-4.25,-3.25l2,-0.25q2,-0.25 2.25,-4.75q0.25,-4.5 2,-8.5l1.75,-4l-4,-0.5q-4,-0.5 -3.75,-5.5q0.25,-5 2.5,-8.75l2.25,-3.75l-3.5,-0.75q-3.5,-0.75 -5,-9.25l-1.5,-8.5l-1,0q-1,0 -3,-5q-2,-5 -3,-5l-1,0l2,-7.5l2,-7.5l-1,0q-1,0 -2.5,-10.5l-1.5,-10.5l3,-3.75q3,-3.75 4.5,-6.5q1.5,-2.75 2.5,-2.75l1,0l0,-7.5l0,-7.5l4,0z" id="path6"/>
  <path d="m102,186l2,-5l13.5,2.75q13.5,2.75 15.5,3.25q2,0.5 5.5,0.25l3.5,-0.25l0.5,1l0.5,1l0,1l0,1l9.25,1.5q9.25,1.5 9.5,1.75q0.25,0.25 8.75,2.25q8.5,2 14.5,3.25l6,1.25l0,2l0,2l-1.25,9.5q-1.25,9.5 -2,12q-0.75,2.5 -1.75,14q-1,11.5 -2,11.5q-1,0 -2.5,10.75q-1.5,10.75 -1.75,11q-0.25,0.25 -2,14.25l-1.75,14l-2.75,7.5q-2.75,7.5 -3.5,8.25q-0.75,0.75 -5.25,0.75l-4.5,0l-0.25,0.25q-0.25,0.25 -1,6.75l-0.75,6.5l-0.5,1.5l-0.5,1.5l-1.5,-2q-1.5,-2 -2.5,-2q-1,0 -5.25,-6.5q-4.25,-6.5 -6.5,-8.5q-2.25,-2 -3.25,-5q-1,-3 -3,-4l-2,-1l-0.25,-2q-0.25,-2 -2.5,-5.25q-2.25,-3.25 -5.25,-5.5l-3,-2.25l0,-2q0,-2 -1,-2q-1,0 -2,-3.5q-1,-3.5 -2,-3.5q-1,0 -2,-3q-1,-3 -4.5,-5l-3.5,-2l0,-2q0,-2 -1,-2q-1,0 -2,-3.5q-1,-3.5 -2,-3.75q-1,-0.25 -2,-3q-1,-2.75 -2.75,-3.75q-1.75,-1 -3.5,-4.5q-1.75,-3.5 -2.75,-3.5l-1,0l1,-7.5q1,-7.5 2,-7.5q1,0 2,-9.5q1,-9.5 2,-9.5q1,0 2,-9.5q1,-9.5 3,-14.5z" id="path8"/>
  <path d="m190.25,55.5l0.75,3.5l-0.5,0q-0.5,0 0.75,13.5l1.25,13.5l2,2q2,2 4.25,4.5q2.25,2.5 3.75,4.75q1.5,2.25 2.75,3.5l1.25,1.25l-1.5,6q-1.5,6 -2.5,11l-1,5l1.75,-0.25q1.75,-0.25 4.75,0.5l3,0.75l1,3q1,3 0,3q-1,0 0.5,5.5q1.5,5.5 3.5,6.5q2,1 3,4l1,3l6.5,1l6.5,1l2,0l2,0l0,-1q0,-1 4,-1l4,0l-1,13q-1,13 -2,13q-1,0 -2,12.5q-1,12.5 -2,12.5q-1,0 -1,8l0,8l-1,-5l-1,-5l-21,-2.5l-21,-2.5l-1,1.5l-1,1.5l0,-2l0,-2l-6,-1.25q-6,-1.25 -14.5,-3.25q-8.5,-2 -8.75,-2.25q-0.25,-0.25 -9.5,-1.75l-9.25,-1.5l0,-1l0,-1l1.5,-0.25l1.5,-0.25l1.5,-6.25q1.5,-6.25 2.5,-6.25q1,0 2,-10.5q1,-10.5 2,-10.5q1,0 0,-8.5l-1,-8.5l1,-2q1,-2 3,-3q2,-1 4.5,-5.25q2.5,-4.25 4,-9l1.5,-4.75l-1,-2q-1,-2 -6,-3l-5,-1l0,-1l0,-1l5,1l5,1l0,-5.5q0,-5.5 1,-5.5q1,0 2,-9.5q1,-9.5 2,-9.5q1,0 2,-11.5l1,-11.5l2,-0.5q2,-0.5 2.75,-4.5l0.75,-4l0.25,1q0.25,1 5.5,3q5.25,2 6,5.5z" id="path10"/>
  <path d="m353,88.5l1,15.5l-1,0.5q-1,0.5 -1.5,16.5l-0.5,16l2,0.5l2,0.5l-2.5,0l-2.5,0l-1.25,14.5l-1.25,14.5l-0.25,-5l-0.25,-5l-0.5,0l-0.5,0l-28,-2.75q-28,-2.75 -28.25,-3q-0.25,-0.25 -21.5,-2.75l-21.25,-2.5l0,2q0,2 -1,2l-1,0l-4,0q-4,0 -4,1l0,1l-2,0l-2,0l-6.5,-1l-6.5,-1l-1,-3q-1,-3 -3,-4q-2,-1 -3.5,-6.5q-1.5,-5.5 -0.5,-5.5q1,0 0,-3l-1,-3l-3,-0.75q-3,-0.75 -4.75,-0.5l-1.75,0.25l1,-5q1,-5 2.5,-11l1.5,-6l-1.25,-1.25q-1.25,-1.25 -2.75,-3.5q-1.5,-2.25 -3.75,-4.75q-2.25,-2.5 -4.25,-4.5l-2,-2l-1.25,-13.5q-1.25,-13.5 -0.75,-13.5l0.5,0l0.5,0q0.5,0 0.5,-4l0,-4l4.5,0.75q4.5,0.75 23.25,3.5q18.75,2.75 19,3q0.25,0.25 18.75,2.5q18.5,2.25 18.5,3.25q0,1 24.25,3.5q24.25,2.5 24.5,2.75q0.25,0.25 13.75,1.5l13.5,1.25l1,15.5z" id="path12"/>
  <path d="m318,154.25l28,2.75l0,20l0,20l-1.5,1l-1.5,1l-0.5,13l-0.5,13l-0.5,0l-0.5,0l0,5.5l0,5.5l-17,-1q-17,-1 -17,-2q0,-1 -28,-2.5l-28,-1.5l-8,-1l-8,-1l0,-4.5q0,-4.5 1,-5l1,-0.5l0,-8q0,-8 1,-8q1,0 2,-12.5q1,-12.5 2,-12.5q1,0 2,-13l1,-13l1,0q1,0 1,-2l0,-2l21.25,2.5q21.25,2.5 21.5,2.75q0.25,0.25 28.25,3z" id="path14"/>
  <path d="m236,212l1,5l-1,0.5q-1,0.5 -1,5l0,4.5l8,1l8,1l0,0.5q0,0.5 5.75,1l5.75,0.5l-0.75,4q-0.75,4 -1.75,21q-1,17 -2,17q-1,0 -2,17q-1,17 -2,17q-1,0 -1,3.5l0,3.5l-3,0l-3,0l0,-1q0,-1 -13,-2q-13,-1 -13,-2q0,-1 -22.5,-4l-22.5,-3l1.75,-14q1.75,-14 2,-14.25q0.25,-0.25 1.75,-11q1.5,-10.75 2.5,-10.75q1,0 2,-11.5q1,-11.5 1.75,-14q0.75,-2.5 2,-12l1.25,-9.5l1,-1.5l1,-1.5l21,2.5l21,2.5l1,5z" id="path16"/>
  <path d="m173.25,309.5l2.75,-7.5l22.5,3q22.5,3 22.5,4q0,1 13,2q13,1 13,2l0,1l0.5,0.75l0.5,0.75l2.5,0.25l2.5,0.25l0,2.5l0,2.5l-0.25,0.5q-0.25,0.5 -1.25,15.5q-1,15 -1.75,17q-0.75,2 -1.75,18q-1,16 -2,16q-1,0 -2,17l-1,17l-1,0.5l-1,0.5l-1,4l-1,4l-13,-1.25q-13,-1.25 -18,-2.75q-5,-1.5 -7.5,-2.5q-2.5,-1 -7,-2.75q-4.5,-1.75 -6.25,-4.75l-1.75,-3l-5.75,-1.75q-5.75,-1.75 -7.5,-4l-1.75,-2.25l-1.25,0q-1.25,0 -2.75,-1q-1.5,-1 -6,-2.5q-4.5,-1.5 -6.25,-3q-1.75,-1.5 -4.5,-3q-2.75,-1.5 -3.75,-4.25l-1,-2.75l1,-0.5q1,-0.5 2.5,-1.25l1.5,-0.75l1,-0.5l1,-0.5l-0.75,-6l-0.75,-6l3.5,-6.5q3.5,-6.5 5.75,-7.5q2.25,-1 2,-3l-0.25,-2l-0.5,-2q-0.5,-2 -1.5,-11q-1,-9 -0.75,-9.25l0.25,-0.25l-0.5,-0.25l-0.5,-0.25l0.75,-6.5q0.75,-6.5 1,-6.75l0.25,-0.25l4.5,0q4.5,0 5.25,-0.75q0.75,-0.75 3.5,-8.25z" id="path18"/>
  <path d="m341.5,225l0.5,0l0.5,6l0.5,6l1.5,0.75q1.5,0.75 14.5,2l13,1.25l0.5,10.5l0.5,10.5l8.5,0l8.5,0l0,0.5q0,0.5 -8.5,1l-8.5,0.5l0.25,29.5l0.25,29.5l0.25,0.25q0.25,0.25 7.25,1l7,0.75l-17.5,0.25q-17.5,0.25 -17.75,0.5l-0.25,0.25l0,4q0,4 3.25,4.5l3.25,0.5l-3.5,0.5q-3.5,0.5 -4,0.5l-0.5,0l-0.5,0l-0.5,0l0,-5l0,-5l-15,-1.75q-15,-1.75 -33.5,-3.25q-18.5,-1.5 -32.5,-3.25l-14,-1.75l0,2.5q0,2.5 -1,2.5l-1,0l0,-2.5l0,-2.5l-2.5,-0.25l-2.5,-0.25l-0.5,-0.75l-0.5,-0.75l3,0l3,0l0,-3.5q0,-3.5 1,-3.5q1,0 2,-17q1,-17 2,-17q1,0 2,-17q1,-17 1.75,-21l0.75,-4l-5.75,-0.5q-5.75,-0.5 -5.75,-1l0,-0.5l28,1.5q28,1.5 28,2.5q0,1 17,2l17,1l0,-5.5l0,-5.5l0.5,0z" id="path20"/>
  <path d="m350,331l0,5l-1,3.5q-1,3.5 -2.5,45l-1.5,41.5l-7.5,-1q-7.5,-1 -29,-1.5l-21.5,-0.5l-2,1.25q-2,1.25 -14.5,1q-12.5,-0.25 -13.5,-1l-1,-0.75l-1.75,3.75q-1.75,3.75 -7,3.5q-5.25,-0.25 -5.5,-0.5l-0.25,-0.25l-0.25,-3.5l-0.25,-3.5l1,-0.5l1,-0.5l1,-17q1,-17 2,-17q1,0 2,-16q1,-16 1.75,-18q0.75,-2 1.75,-17q1,-15 1.25,-15.5l0.25,-0.5l1,0q1,0 1,-2.5l0,-2.5l14,1.75q14,1.75 32.5,3.25q18.5,1.5 33.5,3.25l15,1.75l0,5z" id="path22"/>
  <path d="m355.5,335.5l3.5,-0.5l20.25,2l20.25,2l1.75,20l1.75,20l1.5,1q1.5,1 6.5,2q5,1 5,2q0,1 2,2l2,1l6.5,0l6.5,0l1,2q1,2 5,3l4,1l5.5,0q5.5,0 8.5,1l3,1l12,-1.75l12,-1.75l0.5,0.75l0.5,0.75l-0.5,1l-0.5,1l3,0q3,0 3,2l0,2l5,0l5,0l1,12.5l1,12.5l2.5,8q2.5,8 3.5,8q1,0 2,3l1,3l-2,13l-2,13l-1,3q-1,3 -2.5,3.75l-1.5,0.75l-6,1q-6,1 -8,0.75l-2,-0.25l-0.25,2.5q-0.25,2.5 -0.5,2.75q-0.25,0.25 -1.75,3.5q-1.5,3.25 -3.5,4.25q-2,1 -3,3l-1,2l-8,1.75l-8,1.75l-0.5,1.75q-0.5,1.75 -3,3q-2.5,1.25 -5.75,5q-3.25,3.75 -5.5,5.25l-2.25,1.5l0.25,1q0.25,1 -0.25,2.5q-0.5,1.5 -1.5,12.5q-1,11 0.75,16l1.75,5l-11.5,-1.5l-11.5,-1.5l-4,-3.25q-4,-3.25 -5.25,-4.5q-1.25,-1.25 -3.5,-3.25l-2.25,-2l-2,-9.5l-2,-9.5l-2,0q-2,0 -6.25,-7.5q-4.25,-7.5 -5.5,-11.5q-1.25,-4 -2.5,-5q-1.25,-1 -3.25,-4q-2,-3 -3.75,-4.5q-1.75,-1.5 -3.25,-4.5q-1.5,-3 -4.5,-4q-3,-1 -4.5,-2.75l-1.5,-1.75l-7,0q-7,0 -9,0.75l-2,0.75l-1,4q-1,4 -2,4q-1,0 -2,2l-1,2l-4,0.25q-4,0.25 -5.5,-1.25q-1.5,-1.5 -5,-3.25q-3.5,-1.75 -3.75,-2.75q-0.25,-1 -1.75,-2.5q-1.5,-1.5 -3.75,-3l-2.25,-1.5l-1,-6.5q-1,-6.5 -2.5,-10.5l-1.5,-4l-2.5,-0.25q-2.5,-0.25 -4,-2.75q-1.5,-2.5 -3.5,-4.5q-2,-2 -7,-7.5q-5,-5.5 -6.5,-10.25l-1.5,-4.75l1,-0.5l1,-0.5l21.5,0.5q21.5,0.5 29,1.5l7.5,1l1.5,-41.5q1.5,-41.5 2.5,-45l1,-3.5l0.5,0l0.5,0l0.5,0q0.5,0 4,-0.5z" id="path24"/>
  <path d="m429.5,324.5l41.5,-0.5l0,0.5q0,0.5 9,0.5l9,0l0,5.5l0,5.5l0.5,0l0.5,0l-0.25,2q-0.25,2 -0.5,28.25l-0.25,26.25l-2,0.25l-2,0.25l-0.5,-0.75l-0.5,-0.75l-12,1.75l-12,1.75l-3,-1q-3,-1 -8.5,-1l-5.5,0l-4,-1q-4,-1 -5,-3l-1,-2l-6.5,0l-6.5,0l-2,-1q-2,-1 -2,-2q0,-1 -5,-2q-5,-1 -6.5,-2l-1.5,-1l-1.75,-20l-1.75,-20l-20.25,-2l-20.25,-2l-3.25,-0.5q-3.25,-0.5 -3.25,-4.5l0,-4l0.25,-0.25q0.25,-0.25 17.75,-0.5l17.5,-0.25l41.5,-0.5z" id="path26"/>
  <path d="m390,262.5l0,-0.5l24,0.25q24,0.25 25,1q1,0.75 3.75,1.25l2.75,0.5l0.25,-0.25q0.25,-0.25 9.75,-0.5l9.5,-0.25l0,0.5l0,0.5l6.25,1l6.25,1l1.75,2q1.75,2 2.75,7.5q1,5.5 2.75,7l1.75,1.5l0.25,19l0.25,19l-8,0.5l-8,0.5l-41.5,0.5l-41.5,0.5l-7,-0.75q-7,-0.75 -7.25,-1l-0.25,-0.25l-0.25,-29.5l-0.25,-29.5l8.5,-0.5q8.5,-0.5 8.5,-1z" id="path28"/>
  <path d="m344.5,198l1.5,-1l0.25,0.5l0.25,0.5l0.25,0.25q0.25,0.25 32.25,1.25q32,1 32.5,1q0.5,0 7.5,0l7,0l2.5,1.75q2.5,1.75 10,3q7.5,1.25 11.75,2.5l4.25,1.25l0.25,0.5l0.25,0.5l0,1l0,1l1.75,1.5q1.75,1.5 3,8.5q1.25,7 2.25,7q1,0 3.75,10.5q2.75,10.5 4.25,12q1.5,1.5 1.75,4l0.25,2.5l0.75,2.5l0.75,2.5l-4.25,0.5l-4.25,0.5l-9.5,0.25q-9.5,0.25 -9.75,0.5l-0.25,0.25l-2.75,-0.5q-2.75,-0.5 -3.75,-1.25q-1,-0.75 -25,-1l-24,-0.25l-8.5,0l-8.5,0l-0.5,-10.5l-0.5,-10.5l-13,-1.25q-13,-1.25 -14.5,-2l-1.5,-0.75l-0.5,-6l-0.5,-6l0.5,-13l0.5,-13l1.5,-1z" id="path30"/>
  <path d="m352.5,138l2.5,0l47,1.5l47,1.5l0,0.5l0,0.5l3.5,0l3.5,0l-1,2q-1,2 -1.75,2.5q-0.75,0.5 1,4.5q1.75,4 2.75,4q1,0 1.25,2q0.25,2 0.5,17l0.25,15l-1,1q-1,1 -1,10.5l0,9.5l-1,0l-1,0l-0.25,-0.5l-0.25,-0.5l-4.25,-1.25q-4.25,-1.25 -11.75,-2.5q-7.5,-1.25 -10,-3l-2.5,-1.75l-7,0q-7,0 -7.5,0q-0.5,0 -32.5,-1q-32,-1 -32.25,-1.25l-0.25,-0.25l-0.25,-0.5l-0.25,-0.5l0,-20l0,-20l0.5,0l0.5,0l0.25,5l0.25,5l1.25,-14.5l1.25,-14.5l2.5,0z" id="path32"/>
  <path d="m447.25,88l0.75,11l2,3.5l2,3.5l1.5,13.25q1.5,13.25 2.25,15.5q0.75,2.25 0.5,3.5l-0.25,1.25l-3.5,0.75l-3.5,0.75l-47,-1.5l-47,-1.5l-2,-0.5l-2,-0.5l0.5,-16q0.5,-16 1.5,-16.5l1,-0.5l0,-15.5l0,-15.5l35.5,1.75q35.5,1.75 46,1.75l10.5,0l0.25,0.25q0.25,0.25 1,11.25z" id="path34"/>
  <path d="m525.5,117l-2.5,5l-2,0l-2,0l-1.5,8.25q-1.5,8.25 -2.75,9l-1.25,0.75l0,11.5l0,11.5l4.75,3.5q4.75,3.5 5.75,5.5q1,2 4.25,3.5q3.25,1.5 4,2.5l0.75,1l0.5,3.5l0.5,3.5l-4,0.25q-4,0.25 -11.5,1.25q-7.5,1 -33,2.25l-25.5,1.25l-0.5,-1l-0.5,-1l-0.25,-15q-0.25,-15 -0.5,-17q-0.25,-2 -1.25,-2q-1,0 -2.75,-4q-1.75,-4 -1,-4.5q0.75,-0.5 1.75,-2.5l1,-2l-3.5,0l-3.5,0l0,-0.5l0,-0.5l3.5,-0.75l3.5,-0.75l0.25,-1.25q0.25,-1.25 -0.5,-3.5q-0.75,-2.25 -2.25,-15.5l-1.5,-13.25l-2,-3.5l-2,-3.5l0.5,0q0.5,0 1,-11.5l0.5,-11.5l12.25,-1.5q12.25,-1.5 12.5,-3q0.25,-1.5 3.25,-1.5l3,0l0.75,1.5q0.75,1.5 1,6l0.25,4.5l4.5,1.25q4.5,1.25 16,3.25q11.5,2 15.25,3.25q3.75,1.25 4,2.25q0.25,1 2.25,2l2,1l3.5,-2.25q3.5,-2.25 9.5,-0.75q6,1.5 8,2.25l2,0.75l-1,1.75q-1,1.75 -5.5,4.75q-4.5,3 -6.5,4q-2,1 -5.5,3.75q-3.5,2.75 -6,7.75z" id="path36"/>
  <path d="m533.5,182.5l-0.5,-3.5l0.5,0l0.5,0l1,1.5q1,1.5 2,8l1,6.5l1.25,1.5q1.25,1.5 5,6.25l3.75,4.75l13,0.25l13,0.25l-12,0.75q-12,0.75 -12.25,1l-0.25,0.25l2.25,2.75q2.25,2.75 1.5,9q-0.75,6.25 -4.5,7.75q-3.75,1.5 -4.75,2.5l-1,1l0.25,3q0.25,3 0,7.5q-0.25,4.5 -3.25,5.5l-3,1l0,5l0,5l-1,0l-1,0l0,-4l0,-4l-30,0.25l-30,0.25l-0.5,2.75q-0.5,2.75 -1.5,2.75l-1,0l-0.25,-2.5q-0.25,-2.5 -1.75,-4q-1.5,-1.5 -4.25,-12q-2.75,-10.5 -3.75,-10.5q-1,0 -2.25,-7q-1.25,-7 -3,-8.5l-1.75,-1.5l0,-1l0,-1l1,0l1,0l0,-9.5q0,-9.5 1,-10.5l1,-1l0.5,1l0.5,1l25.5,-1.25q25.5,-1.25 33,-2.25q7.5,-1 11.5,-1.25l4,-0.25l-0.5,-3.5z" id="path38"/>
  <path d="m536,260l1,0l0,0.5l0,0.5l1,0q1,0 2,3.5l1,3.5l2.5,1q2.5,1 4.5,4.75q2,3.75 7,7.5l5,3.75l-1,4.5q-1,4.5 -2,4.5q-1,0 -1,2.5l0,2.5l3,1q3,1 4.5,2.75q1.5,1.75 5.5,4.5l4,2.75l1.5,6l1.5,6l1,-0.5l1,-0.5l0.5,0l0.5,0l0,5l0,5l2,0.5l2,0.5l0,0.5l0,0.5l-4,0l-4,0l0,2q0,2 -1,2.5l-1,0.5l-1.5,1.25l-1.5,1.25l-3.5,0q-3.5,0 -2.25,-2.75q1.25,-2.75 0.5,-3.5q-0.75,-0.75 -36.75,0.25l-36,1l-0.75,-4.75l-0.75,-4.75l-0.25,5l-0.25,5l-0.5,0l-0.5,0l0,-5.5l0,-5.5l-9,0q-9,0 -9,-0.5l0,-0.5l8,-0.5l8,-0.5l-0.25,-19l-0.25,-19l-1.75,-1.5q-1.75,-1.5 -2.75,-7q-1,-5.5 -2.75,-7.5l-1.75,-2l-6.25,-1l-6.25,-1l0,-0.5l0,-0.5l4.25,-0.5l4.25,-0.5l-0.75,-2.5l-0.75,-2.5l1,0q1,0 1.5,-2.75l0.5,-2.75l30,-0.25l30,-0.25l0,4l0,4l1,0z" id="path40"/>
  <path d="m571.5,339.25l1.5,-1.25l-1.5,4.75q-1.5,4.75 -1.75,5q-0.25,0.25 -2.25,6.75q-2,6.5 -2.25,8.5l-0.25,2l5,0l5,0l0,0.5q0,0.5 -6.5,1.75l-6.5,1.25l-1.5,2.25q-1.5,2.25 -2.5,5.75q-1,3.5 -2,3.5q-1,0 -2,5q-1,5 -2,5l-1,0l-0.5,9.25l-0.5,9.25l1.5,1.75q1.5,1.75 1.5,4.25l0,2.5l-1,0l-1,0l-0.25,-1.5q-0.25,-1.5 -1.5,-3.75l-1.25,-2.25l-17.5,0q-17.5,0 -23,0.25l-5.5,0.25l0,7l0,7l-1,-12.5l-1,-12.5l-5,0l-5,0l0,-2q0,-2 -3,-2l-3,0l0.5,-1l0.5,-1l2,-0.25l2,-0.25l0.25,-26.25q0.25,-26.25 0.5,-28.25l0.25,-2l0.25,-5l0.25,-5l0.75,4.75l0.75,4.75l36,-1q36,-1 36.75,-0.25q0.75,0.75 -0.5,3.5q-1.25,2.75 2.25,2.75l3.5,0l1.5,-1.25z" id="path42"/>
  <path d="m550.75,415.5l0.25,1.5l1,0.5q1,0.5 -0.75,6.5q-1.75,6 -3.75,9.5l-2,3.5l0.75,6.5l0.75,6.5l2.5,-0.25q2.5,-0.25 15.5,-0.5l13,-0.25l1,5l1,5l2.5,1q2.5,1 4,2.75q1.5,1.75 2.5,2l1,0.25l0.25,6.5q0.25,6.5 0.75,6q0.5,-0.5 2,8.5l1.5,9l-0.5,-2q-0.5,-2 -3.75,-3.25q-3.25,-1.25 -3.5,-1.5q-0.25,-0.25 -4,-3q-3.75,-2.75 -4.25,-4l-0.5,-1.25l-1.5,2q-1.5,2 -4,2.75q-2.5,0.75 -8.5,0.75l-6,0l-1.5,-1.75q-1.5,-1.75 -4.5,-2.75q-3,-1 -6.5,-3.75l-3.5,-2.75l-1.5,-0.25q-1.5,-0.25 -2.5,1.75q-1,2 -16,1l-15,-1l0,-2l0,-2l2,-13l2,-13l-1,-3q-1,-3 -2,-3q-1,0 -3.5,-8l-2.5,-8l0,-7l0,-7l5.5,-0.25q5.5,-0.25 23,-0.25l17.5,0l1.25,2.25q1.25,2.25 1.5,3.75z" id="path44"/>
  <path d="m585,363l9,0l0,0.5q0,0.5 2.5,0.5l2.5,0l-0.75,16.5q-0.75,16.5 0.5,43q1.25,26.5 2.25,26.5q1,0 1,2l0,2l-0.25,2.5q-0.25,2.5 -0.5,2.75l-0.25,0.25l-4.5,0.5q-4.5,0.5 -5.5,2.75l-1,2.25l-1,-0.25q-1,-0.25 -2.5,-2q-1.5,-1.75 -4,-2.75l-2.5,-1l-1,-5l-1,-5l-13,0.25q-13,0.25 -15.5,0.5l-2.5,0.25l-0.75,-6.5l-0.75,-6.5l2,-3.5q2,-3.5 3.75,-9.5q1.75,-6 0.75,-6.5l-1,-0.5l1,0l1,0l0,-2.5q0,-2.5 -1.5,-4.25l-1.5,-1.75l0.5,-9.25l0.5,-9.25l1,0q1,0 2,-5q1,-5 2,-5q1,0 2,-3.5q1,-3.5 2.5,-5.75l1.5,-2.25l6.5,-1.25q6.5,-1.25 6.5,-1.75l0,-0.5l0.5,-1l0.5,-1l9,0z" id="path46"/>
  <path d="m621.5,360.25l21.5,-1.25l1,0.25l1,0.25l-1,0.25q-1,0.25 0.25,6.25q1.25,6 4.5,16q3.25,10 3.25,14.5l0,4.5l1.25,1.5q1.25,1.5 2.75,4q1.5,2.5 2.25,13.5l0.75,11l0,4l0,4l-13.5,1.25q-13.5,1.25 -22,2.5l-8.5,1.25l0,3q0,3 1,3q1,0 2,2l1,2l-0.5,2.25l-0.5,2.25l-3,0.25q-3,0.25 -3.5,-2.75q-0.5,-3 -2.5,-1.25q-2,1.75 -3.5,2.75l-1.5,1l-0.5,-2.25q-0.5,-2.25 -1,-2.25l-0.5,0l0,-2q0,-2 -1,-2q-1,0 -2.25,-26.5q-1.25,-26.5 -0.5,-43l0.75,-16.5l-2.5,0q-2.5,0 -2.5,-0.5l0,-0.5l3,-0.75q3,-0.75 24.5,-2z" id="path48"/>
  <path d="m659,435l0,-4l1,0l1,0l1,6l1,6l1,1q1,1 3.5,0.25q2.5,-0.75 23.5,-2q21,-1.25 21.25,0.75l0.25,2l0.75,-3.75q0.75,-3.75 3.75,-4.5l3,-0.75l1,0.25q1,0.25 3.25,4q2.25,3.75 4.75,9.75q2.5,6 3.75,8.25q1.25,2.25 3.75,6.5q2.5,4.25 4.5,5.25q2,1 3.25,3.5q1.25,2.5 3,4l1.75,1.5l-0.75,1.5q-0.75,1.5 0.5,3q1.25,1.5 3.5,8q2.25,6.5 4.25,9.5q2,3 3.75,4.5l1.75,1.5l1,10.5q1,10.5 2.5,11.25l1.5,0.75l-1,0.25q-1,0.25 -2.25,4.25q-1.25,4 -1.25,4.5q0,0.5 -1.75,5.5q-1.75,5 -6.75,6l-5,1l-1.5,-1.75q-1.5,-1.75 -3.25,-4q-1.75,-2.25 -4,-4q-2.25,-1.75 -4.25,-2.75l-2,-1l-1.75,-3.25q-1.75,-3.25 -4.25,-5.75q-2.5,-2.5 -7,-6.5l-4.5,-4l-1.5,-8l-1.5,-8l-2,-1q-2,-1 -24.25,-13.75q-22.25,-12.75 -34.75,-19.25q-12.5,-6.5 -21.5,-8l-9,-1.5l-0.5,-2.25q-0.5,-2.25 -1.5,-2.25l-1,0l-1,-2q-1,-2 -2,-2q-1,0 -1,-3l0,-3l8.5,-1.25q8.5,-1.25 22,-2.5l13.5,-1.25l0,-4z" id="path50"/>
  <path d="m681.5,362.5l1.5,0.5l0,0.5q0,0.5 3.5,1.5l3.5,1l1.5,3.5q1.5,3.5 3.25,4.5q1.75,1 3,2.75q1.25,1.75 4.25,3q3,1.25 5.25,4.25q2.25,3 5.5,5l3.25,2l1.5,3.5q1.5,3.5 3,4.5q1.5,1 1.5,2l0,1l1.5,3.25q1.5,3.25 3,3.5l1.5,0.25l-1,1q-1,1 -3,12.5q-2,11.5 -3,12.5l-1,1l-3,0.75q-3,0.75 -3.75,4.5l-0.75,3.75l-0.25,-2q-0.25,-2 -21.25,-0.75q-21,1.25 -23.5,2q-2.5,0.75 -3.5,-0.25l-1,-1l-1,-6l-1,-6l-1,0l-1,0l-0.75,-11q-0.75,-11 -2.25,-13.5q-1.5,-2.5 -2.75,-4l-1.25,-1.5l0,-4.5q0,-4.5 -3.25,-14.5q-3.25,-10 -4.5,-16q-1.25,-6 -0.25,-6.25l1,-0.25l-1,-0.25l-1,-0.25l0,-0.5l0,-0.5l1.5,0l1.5,0l15.75,-1.5q15.75,-1.5 16.25,-2l0.5,-0.5l0.75,4q0.75,4 2.25,4.5z" id="path52"/>
  <path d="m758,363l1,3l-0.75,1.5q-0.75,1.5 -2,3.25q-1.25,1.75 -2,3q-0.75,1.25 -1.75,5.25q-1,4 -5.5,8q-4.5,4 -7.25,5.5l-2.75,1.5l0.25,1.5q0.25,1.5 -1.5,3q-1.75,1.5 -2.75,4.5q-1,3 -4,3.5l-3,0.5l-2,-2.5l-2,-2.5l0,-1q0,-1 -1.5,-2q-1.5,-1 -3,-4.5l-1.5,-3.5l-3.25,-2q-3.25,-2 -5.5,-5q-2.25,-3 -5.25,-4.25q-3,-1.25 -4.25,-3q-1.25,-1.75 -3,-2.75q-1.75,-1 -3.25,-4.5l-1.5,-3.5l-3.5,-1q-3.5,-1 -3.5,-1.5l0,-0.5l-1,-3.5l-1,-3.5l4.25,-2.5q4.25,-2.5 4.5,-3.5q0.25,-1 2.25,-2l2,-1l9.5,-1l9.5,-1l0,1q0,1 4,2q4,1 4,2l0,1l10.5,-1l10.5,-1l0,2q0,2 2.5,3.25q2.5,1.25 7.5,3.5q5,2.25 6,5.25z" id="path54"/>
  <path d="m646,357l0,1l-1.5,0l-1.5,0l0,0.5l0,0.5l-21.5,1.25q-21.5,1.25 -24.5,2l-3,0.75l-9,0l-9,0l-0.5,1l-0.5,1l-5,0l-5,0l0.25,-2q0.25,-2 2.25,-8.5q2,-6.5 2.25,-6.75q0.25,-0.25 1.75,-5l1.5,-4.75l1,-0.5q1,-0.5 1,-2.5l0,-2l4,0l4,0l0,-0.5l0,-0.5l7.5,0l7.5,0l0.5,-2q0.5,-2 24.5,-3q24,-1 24,-2q0,-1 12.5,-2.5l12.5,-1.5l10.5,-0.75q10.5,-0.75 10.75,1l0.25,1.75l-1.75,1.75q-1.75,1.75 -6.75,4.75q-5,3 -6.5,5.25l-1.5,2.25l-3,1.25q-3,1.25 -7.75,4l-4.75,2.75l-1.25,2.25q-1.25,2.25 -2.75,5.5l-1.5,3.25l-5,0l-5,0l0,1z" id="path56"/>
  <path d="m782,302l4,0l4,0.25l4,0.25l0.75,2.75q0.75,2.75 0.5,5q-0.25,2.25 2.25,2.5q2.5,0.25 2.5,4.25l0,4l-1.75,1.5q-1.75,1.5 -4,3l-2.25,1.5l-0.5,2.5q-0.5,2.5 1,2.5q1.5,0 1.5,3l0,3l-2,1q-2,1 -2,2q0,1 -3.25,2q-3.25,1 -3.25,7l0,6l-1.75,-3.5q-1.75,-3.5 -4,-2q-2.25,1.5 -3.25,2.5q-1,1 -3.25,5.75q-2.25,4.75 -7.25,6l-5,1.25l-1,-3q-1,-3 -6,-5.25q-5,-2.25 -7.5,-3.5q-2.5,-1.25 -2.5,-3.25l0,-2l-10.5,1l-10.5,1l0,-1q0,-1 -4,-2q-4,-1 -4,-2l0,-1l-9.5,1l-9.5,1l-2,1q-2,1 -2.25,2q-0.25,1 -4.5,3.5l-4.25,2.5l1,3.5l1,3.5l-1.5,-0.5q-1.5,-0.5 -2.25,-4.5l-0.75,-4l-0.5,0.5q-0.5,0.5 -16.25,2l-15.75,1.5l0,-1l0,-1l5,0l5,0l1.5,-3.25q1.5,-3.25 2.75,-5.5l1.25,-2.25l4.75,-2.75q4.75,-2.75 7.75,-4l3,-1.25l1.5,-2.25q1.5,-2.25 6.5,-5.25q5,-3 6.75,-4.75l1.75,-1.75l-0.25,-1.75q-0.25,-1.75 -10.75,-1l-10.5,0.75l1.5,-0.5l1.5,-0.5l3.5,-1.25q3.5,-1.25 26,-3.5q22.5,-2.25 22.5,-3.25q0,-1 12.5,-2q12.5,-1 12.5,-2q0,-1 10.75,-3q10.75,-2 12,-2.5q1.25,-0.5 2.25,-0.5q1,0 5,0z" id="path58"/>
  <path d="m679,287.5l2,1.5l0,0.5l0,0.5l2.25,1.5q2.25,1.5 5,4l2.75,2.5l-3.75,5q-3.75,5 -5.5,9l-1.75,4l-1.5,0.25q-1.5,0.25 -2.5,2l-1,1.75l-1.5,0.5l-1.5,0.5l-12.5,1.5q-12.5,1.5 -12.5,2.5q0,1 -24,2q-24,1 -24.5,3l-0.5,2l-7.5,0l-7.5,0l-2,-0.5l-2,-0.5l0,-5q0,-5 -0.5,-5l-0.5,0l0,-0.5l0,-0.5l1,-1q1,-1 5,-2q4,-1 6,-3l2,-2l1,-5l1,-5l0.5,0l0.5,0l0,1l0,1l11,-1.5l11,-1.5l1.5,-2.5q1.5,-2.5 5.5,-3.5l4,-1l1,-2q1,-2 3,-3q2,-1 3,-3q1,-2 2,-2l1,0l1.5,-3.5l1.5,-3.5l2,-0.75l2,-0.75l3,0.75q3,0.75 3,1.75q0,1 10.75,1.5q10.75,0.5 11.25,0l0.5,-0.5l1.75,3.5q1.75,3.5 3.75,5z" id="path60"/>
  <path d="m752.5,253l4.5,0l2.5,1l2.5,1l1,1l1,1l0,5.5l0,5.5l4,0.5l4,0.5l1.5,0.75q1.5,0.75 4.5,2.5l3,1.75l0.5,9.25q0.5,9.25 5.25,10l4.75,0.75l0.25,3q0.25,3 -2.75,4l-3,1l-4,0q-4,0 -5,0q-1,0 -2.25,0.5q-1.25,0.5 -12,2.5q-10.75,2 -10.75,3q0,1 -12.5,2q-12.5,1 -12.5,2q0,1 -22.5,3.25q-22.5,2.25 -26,3.5l-3.5,1.25l1,-1.75q1,-1.75 2.5,-2l1.5,-0.25l1.75,-4q1.75,-4 5.5,-9l3.75,-5l1.5,1q1.5,1 2.5,2.75l1,1.75l3,-0.75q3,-0.75 8.5,-2.5q5.5,-1.75 7.5,-2l2,-0.25l2.75,-5.5q2.75,-5.5 4,-11.5l1.25,-6l4,-1.5q4,-1.5 5,-2.5q1,-1 1,-4q0,-3 2.75,-4q2.75,-1 4.5,-6.5l1.75,-5.5l2,1q2,1 6.5,1z" id="path62"/>
  <path d="m721.5,245.75l0.5,0.25l0,1.25q0,1.25 2.25,2l2.25,0.75l1.25,1.5l1.25,1.5l0,-1q0,-1 3.25,-2.5q3.25,-1.5 3.5,-1.75q0.25,-0.25 8.75,-1.25l8.5,-1l0.25,0.25q0.25,0.25 0.5,2.75l0.25,2.5l1.5,1l1.5,1l-4.5,0q-4.5,0 -6.5,-1l-2,-1l-1.75,5.5q-1.75,5.5 -4.5,6.5q-2.75,1 -2.75,4q0,3 -1,4q-1,1 -5,2.5l-4,1.5l-1.25,6q-1.25,6 -4,11.5l-2.75,5.5l-2,0.25q-2,0.25 -7.5,2q-5.5,1.75 -8.5,2.5l-3,0.75l-1,-1.75q-1,-1.75 -2.5,-2.75l-1.5,-1l-2.75,-2.5q-2.75,-2.5 -5,-4l-2.25,-1.5l0,-0.5l0,-0.5l1,0q1,0 2,-5q1,-5 2,-5q1,0 2,-4q1,-4 3.25,-6q2.25,-2 3.25,-5l1,-3l3.25,-2.25q3.25,-2.25 5,-5q1.75,-2.75 2.5,-5l0.75,-2.25l0.5,-0.25l0.5,-0.25l0,0.5q0,0.5 6.5,-0.25l6.5,-0.75l0.5,0.25z" id="path64"/>
  <path d="m765.5,237l5.5,-1l4,0l4,0l-1,4l-1,4l-1.25,1.5q-1.25,1.5 -0.5,10l0.75,8.5l3.5,2l3.5,2l-5.5,0.5l-5.5,0.5l-4,-0.5l-4,-0.5l0,-5.5l0,-5.5l-1,-1l-1,-1l-2.5,-1l-2.5,-1l-1.5,-1l-1.5,-1l-0.25,-2.5q-0.25,-2.5 -0.5,-2.75l-0.25,-0.25l-8.5,1q-8.5,1 -8.75,1.25q-0.25,0.25 -3.5,1.75q-3.25,1.5 -3.25,2.5l0,1l-1.25,-1.5l-1.25,-1.5l-2.25,-0.75q-2.25,-0.75 -2.25,-2l0,-1.25l0,-0.5q0,-0.5 12,-2.75q12,-2.25 17.5,-2.75q5.5,-0.5 7,-0.25l1.5,0.25l0,-1q0,-1 5.5,-2z" id="path66"/>
  <path d="m791.5,259l5.5,0l1.5,0l1.5,0l0,2.5q0,2.5 -2,2.5q-2,0 -2,2q0,2 -2,2.25q-2,0.25 -3.75,0.5l-1.75,0.25l-2.75,-0.5l-2.75,-0.5l-3.5,-2l-3.5,-2l-0.75,-8.5q-0.75,-8.5 0.5,-10l1.25,-1.5l0.75,-1.5q0.75,-1.5 2,-2l1.25,-0.5l2.75,6.5q2.75,6.5 2.5,9.5l-0.25,3l5.5,0z" id="path68"/>
  <path d="m786,231l1,-1l0.75,4l0.75,4l4,2q4,2 4.75,4l0.75,2l-0.5,6.5l-0.5,6.5l-5.5,0l-5.5,0l0.25,-3q0.25,-3 -2.5,-9.5l-2.75,-6.5l-1.25,0.5q-1.25,0.5 -2,2l-0.75,1.5l1,-4l1,-4l-4,0l-4,0l0,-1l0,-1l7,-1q7,-1 8,-2z" id="path70"/>
  <path d="m574.5,207.5l0.5,-0.5l7,0l7,0l2,8.5q2,8.5 3.25,9q1.25,0.5 1.5,12.5l0.25,12l0,0.5l0,0.5l1,0q1,0 2.25,17l1.25,17l-2.5,5q-2.5,5 -2.75,9l-0.25,4l-0.5,0l-0.5,0l-1,5l-1,5l-2,2q-2,2 -6,3q-4,1 -5,2l-1,1l0,0.5l0,0.5l-1,0.5l-1,0.5l-1.5,-6l-1.5,-6l-4,-2.75q-4,-2.75 -5.5,-4.5q-1.5,-1.75 -4.5,-2.75l-3,-1l0,-2.5q0,-2.5 1,-2.5q1,0 2,-4.5l1,-4.5l-5,-3.75q-5,-3.75 -7,-7.5q-2,-3.75 -4.5,-4.75l-2.5,-1l-1,-3.5q-1,-3.5 -2,-3.5l-1,0l0,-0.5l0,-0.5l0,-5l0,-5l3,-1q3,-1 3.25,-5.5q0.25,-4.5 0,-7.5l-0.25,-3l1,-1q1,-1 4.75,-2.5q3.75,-1.5 4.5,-7.75q0.75,-6.25 -1.5,-9l-2.25,-2.75l0.25,-0.25q0.25,-0.25 12.25,-1l12,-0.75l0.5,-0.5z" id="path72"/>
  <path d="m621,220.25l14,-0.25l0.5,0l0.5,0l1.25,14.5q1.25,14.5 2.5,28.5l1.25,14l-1.5,3.5l-1.5,3.5l-1,0q-1,0 -2,2q-1,2 -3,3q-2,1 -3,3l-1,2l-4,1q-4,1 -5.5,3.5l-1.5,2.5l-11,1.5l-11,1.5l0,-1l0,-1l0.25,-4q0.25,-4 2.75,-9l2.5,-5l-1.25,-17q-1.25,-17 -2.25,-17l-1,0l0,-0.5l0,-0.5l0.75,-0.5q0.75,-0.5 1.25,-12l0.5,-11.5l4.25,-2.25q4.25,-2.25 18.25,-2.5z" id="path74"/>
  <path d="m699.25,202.5l1.75,-0.5l1,0l1,0l1.25,6q1.25,6 2.25,14.5q1,8.5 1.25,16l0.25,7.5l-0.5,0.25l-0.5,0.25l-0.75,2.25q-0.75,2.25 -2.5,5q-1.75,2.75 -5,5l-3.25,2.25l-1,3q-1,3 -3.25,5q-2.25,2 -3.25,6q-1,4 -2,4q-1,0 -2,5q-1,5 -2,5l-1,0l-2,-1.5q-2,-1.5 -3.75,-5l-1.75,-3.5l-0.5,0.5q-0.5,0.5 -11.25,0q-10.75,-0.5 -10.75,-1.5q0,-1 -3,-1.75l-3,-0.75l-2,0.75l-2,0.75l-1.25,-14q-1.25,-14 -2.5,-28.5q-1.25,-14.5 -1.75,-14.5l-0.5,0l-0.25,-0.5l-0.25,-0.5l-0.25,-0.5l-0.25,-0.5l5,-1.25q5,-1.25 9,-2l4,-0.75l0,0.5q0,0.5 11,0.5q11,0 15,-0.25l4,-0.25l3.25,-3.25q3.25,-3.25 7.75,-5.75q4.5,-2.5 6.25,-3z" id="path76"/>
  <path d="m787.75,200l0.25,2l-0.75,4q-0.75,4 0.5,7.5q1.25,3.5 3.5,5q2.25,1.5 3,2.25l0.75,0.75l-4,4.25l-4,4.25l-1,1q-1,1 -8,2l-7,1l0,1l0,1l-5.5,1q-5.5,1 -5.5,2l0,1l-1.5,-0.25q-1.5,-0.25 -7,0.25q-5.5,0.5 -17.5,2.75q-12,2.25 -12,2.75l0,0.5l-0.5,-0.25l-0.5,-0.25l-6.5,0.75l-6.5,0.75l0,-0.5l0,-0.5l-0.25,-7.5q-0.25,-7.5 -1.25,-16q-1,-8.5 -2.25,-14.5l-1.25,-6l-1,0l-1,0l2.25,-2.5l2.25,-2.5l2,0q2,0 2.25,1.5q0.25,1.5 2.25,1.5l2,0l8.25,-1.5q8.25,-1.5 8.5,-1.75q0.25,-0.25 19.75,-4q19.5,-3.75 19.5,-4.75q0,-1 4.5,-1l4.5,0l1,3q1,3 2,3q1,0 1,2l0,2l2.25,0.5l2.25,0.5l0.25,2z" id="path78"/>
  <path d="m802.5,207.5l-0.5,3.5l-0.25,1.5q-0.25,1.5 2,2q2.25,0.5 0.75,12.5q-1.5,12 -1.5,13.25q0,1.25 -1,2.25l-1,1l-1.5,1.25l-1.5,1.25l-0.75,-2q-0.75,-2 -4.75,-4l-4,-2l-0.75,-4l-0.75,-4l4,-4.25l4,-4.25l-0.75,-0.75q-0.75,-0.75 -3,-2.25q-2.25,-1.5 -3.5,-5q-1.25,-3.5 -0.5,-7.5l0.75,-4l0.5,0q0.5,0 0.5,-2l0,-2l4.75,2q4.75,2 7,3l2.25,1l-0.5,3.5z" id="path80"/>
  <path d="m543,124.5l5,1.5l1.5,1.25q1.5,1.25 8,3.25q6.5,2 11.5,3.5q5,1.5 6,2.25q1,0.75 2.5,1l1.5,0.25l2.25,3.75q2.25,3.75 3,6.25l0.75,2.5l-0.5,0q-0.5,0 -1.5,6l-1,6l2.25,-2q2.25,-2 4.5,-3q2.25,-1 2.5,1q0.25,2 -2,14q-2.25,12 -3.25,12l-1,0l2,9.5l2,9.5l-1,1q-1,1 -7,1l-6,0l0,1l0,1l-0.5,0.5l-0.5,0.5l-13,-0.25l-13,-0.25l-3.75,-4.75q-3.75,-4.75 -5,-6.25l-1.25,-1.5l-1,-6.5q-1,-6.5 -2,-8l-1,-1.5l-0.5,0l-0.5,0l-0.75,-1q-0.75,-1 -4,-2.5q-3.25,-1.5 -4.25,-3.5q-1,-2 -5.75,-5.5l-4.75,-3.5l0,-11.5l0,-11.5l1.25,-0.75q1.25,-0.75 2.75,-9l1.5,-8.25l2,0l2,0l7.5,-2l7.5,-2l0,2.5q0,2.5 5,4z" id="path82"/>
  <path d="m636.5,133l-4.5,0l0.25,-1l0.25,-1l-9.25,-1l-9.25,-1l0,1q0,1 -5,2q-5,1 -5.5,5l-0.5,4l-1.5,-0.75q-1.5,-0.75 -4.5,-1.75l-3,-1l-0.5,1.75q-0.5,1.75 -1.25,2.75q-0.75,1 -1,2q-0.25,1 -1.75,3.5l-1.5,2.5l-1.5,0l-1.5,0l-0.75,-2.5q-0.75,-2.5 -3,-6.25l-2.25,-3.75l-1.5,-0.25q-1.5,-0.25 -2.5,-1q-1,-0.75 -6,-2.25q-5,-1.5 -11.5,-3.5q-6.5,-2 -8,-3.25l-1.5,-1.25l-0.75,-1.5l-0.75,-1.5l2.25,-2.5q2.25,-2.5 6.25,-3.5q4,-1 4,-2q0,-1 3,-1.5q3,-0.5 4.5,-3.25q1.5,-2.75 4.5,-4.25q3,-1.5 6,-1.75l3,-0.25l-1,1.75q-1,1.75 -2,3.5q-1,1.75 0,3.5q1,1.75 4,2.5q3,0.75 4.5,2.5q1.5,1.75 7.5,3l6,1.25l1,-2q1,-2 10.5,-4.5l9.5,-2.5l1.5,2.25q1.5,2.25 6.5,2.5l5,0.25l1,3q1,3 6.5,3.75l5.5,0.75l-2.25,1.25q-2.25,1.25 -2.5,3.75q-0.25,2.5 -4.75,2.5z" id="path84"/>
  <path d="m630.5,134.5l1.5,-0.5l4.5,1.75q4.5,1.75 8,2.5l3.5,0.75l1,1q1,1 2,11.5q1,10.5 0,11.5q-1,1 -2.75,3.5q-1.75,2.5 -1.5,4.25l0.25,1.75l1.5,0.25q1.5,0.25 3,-3q1.5,-3.25 2.5,-4.5q1,-1.25 5,0.5q4,1.75 4.75,2.5q0.75,0.75 2,6.75q1.25,6 2.5,7q1.25,1 1,6.5l-0.25,5.5l-2.5,0.5q-2.5,0.5 -3.5,6.5q-1,6 -3.5,7.5q-2.5,1.5 -2.5,3l0,1.5l-2.5,0.5l-2.5,0.5l-4,0.75q-4,0.75 -9,2l-5,1.25l-13.5,0q-13.5,0 -13.25,-1l0.25,-1l0.75,-3.5q0.75,-3.5 2,-12.5q1.25,-9 1,-9.25q-0.25,-0.25 -1.75,-4.5q-1.5,-4.25 -2.5,-4.25l-1,0l0,-5.5q0,-5.5 -1,-6.5l-1,-1l1.5,-0.25q1.5,-0.25 2.25,-5.5q0.75,-5.25 1,-5.5q0.25,-0.25 1.75,-4q1.5,-3.75 3.25,-4.25q1.75,-0.5 3.75,0.5l2,1l0,-2.5q0,-2.5 0.75,-4q0.75,-1.5 1.75,-5.5l1,-4l3,0q3,0 4.5,-0.5z" id="path86"/>
  <path d="m791.75,122.5l1.25,2.5l0.75,0.5q0.75,0.5 2.5,11q1.75,10.5 3.25,10.5q1.5,0 3,8q1.5,8 3,8l1.5,0l0,1l0,1l-0.5,0l-0.5,0l-1,0q-1,0 0.5,19l1.5,19l2,-1.25q2,-1.25 6,-2.75q4,-1.5 5.5,-1.75l1.5,-0.25l1.5,0l1.5,0l-1,3.5q-1,3.5 -3.5,4.75q-2.5,1.25 -4,2.5q-1.5,1.25 -8,2.75l-6.5,1.5l0,-0.5l0,-0.5l0.5,-3.5l0.5,-3.5l-2.25,-1q-2.25,-1 -7,-3l-4.75,-2l0,2q0,2 -0.5,2l-0.5,0l-0.25,-2l-0.25,-2l-2.25,-0.5l-2.25,-0.5l0,-2q0,-2 -1,-2q-1,0 -2,-3l-1,-3l-4.5,0q-4.5,0 -4.5,1q0,1 -19.5,4.75q-19.5,3.75 -19.75,4q-0.25,0.25 -8.5,1.75l-8.25,1.5l-1.25,-1q-1.25,-1 0.25,-4.5q1.5,-3.5 4.5,-7.5q3,-4 2,-9.5l-1,-5.5l3.75,-1.75q3.75,-1.75 8,-2q4.25,-0.25 4.75,-2.75l0.5,-2.5l1.25,2.25q1.25,2.25 4.25,2.25l3,0l4,-3q4,-3 6.25,-4.75q2.25,-1.75 2.5,-2l0.25,-0.25l-0.25,-1.75q-0.25,-1.75 -0.75,-6.25l-0.5,-4.5l2.5,-4.5q2.5,-4.5 4.75,-7.75q2.25,-3.25 3.75,-5.25l1.5,-2l2,-1.25q2,-1.25 10.25,-2.75q8.25,-1.5 8.75,-2l0.5,-0.5l0.5,0.5q0.5,0.5 1.75,3z" id="path88"/>
  <path d="m805,165l1,0l-0.25,0.5l-0.25,0.5l0,4.5l0,4.5l0.25,0.25q0.25,0.25 9.75,-0.5q9.5,-0.75 9.5,-1.75q0,-1 6,-1l6,0l0,1l0,1l-3,0q-3,0 -2,6.5l1,6.5l-2.5,1q-2.5,1 -4,4l-1.5,3l-1.5,1l-1.5,1l-1.5,0.25q-1.5,0.25 -5.5,1.75q-4,1.5 -6,2.75l-2,1.25l-1.5,-19q-1.5,-19 -0.5,-19z" id="path90"/>
  <path d="m842.25,162l0.75,-1l0.5,0q0.5,0 2.25,4.5q1.75,4.5 2,6.5q0.25,2 1,4l0.75,2l-2.25,1l-2.25,1l-3.5,-2.25l-3.5,-2.25l-0.5,-0.75l-0.5,-0.75l0,-1l0,-1l-6,0q-6,0 -6,1q0,1 -9.5,1.75q-9.5,0.75 -9.75,0.5l-0.25,-0.25l0,-4.5l0,-4.5l0.25,-0.5l0.25,-0.5l0.5,0l0.5,0l0.5,0l0.5,0l0.5,-1l0.5,-1l2.5,-1q2.5,-1 12,-2q9.5,-1 10.5,-3q1,-2 3.5,-1.75l2.5,0.25l0.75,1.75q0.75,1.75 0.75,3.75l0,2l0.75,-1z" id="path92"/>
  <path d="m834,174l3,0l0.5,0.75l0.5,0.75l3.5,2.25l3.5,2.25l-6,3.5l-6,3.5l-1,-6.5q-1,-6.5 2,-6.5z" id="path94"/>
  <path d="m811,114.25l5,-0.25l0.25,2l0.25,2l0.75,2.5l0.75,2.5l-2,0q-2,0 -3.5,19.25q-1.5,19.25 -2.5,20l-1,0.75l-0.5,1l-0.5,1l-0.5,0l-0.5,0l0,-1l0,-1l-1.5,0q-1.5,0 -3,-8q-1.5,-8 -3,-8q-1.5,0 -3.25,-10.5q-1.75,-10.5 -2.5,-11l-0.75,-0.5l0,-3l0,-3l6.5,-2.25q6.5,-2.25 11.5,-2.5z" id="path96"/>
  <path d="m820,105l2,1l1.25,1.5q1.25,1.5 2.25,4q1,2.5 2.25,8q1.25,5.5 2.25,5.5q1,0 3,9.5l2,9.5l3.25,-1.5q3.25,-1.5 6,-5.75q2.75,-4.25 6.75,-6.5l4,-2.25l-1.25,3.5q-1.25,3.5 -6,16.5l-4.75,13l-0.75,1l-0.75,1l0,-2q0,-2 -0.75,-3.75l-0.75,-1.75l-2.5,-0.25q-2.5,-0.25 -3.5,1.75q-1,2 -10.5,3q-9.5,1 -12,2l-2.5,1l1,-0.75q1,-0.75 2.5,-20q1.5,-19.25 3.5,-19.25l2,0l-0.75,-2.5l-0.75,-2.5l-0.25,-2l-0.25,-2l0.25,-1q0.25,-1 1,-5l0.75,-4l2,1z" id="path98"/>
  <path d="m856,127.5l-1,0.5l-4,2.25q-4,2.25 -6.75,6.5q-2.75,4.25 -6,5.75l-3.25,1.5l-2,-9.5q-2,-9.5 -3,-9.5q-1,0 -2.25,-5.5q-1.25,-5.5 -2.25,-8q-1,-2.5 -2.25,-4l-1.25,-1.5l3.25,-7q3.25,-7 5.25,-22.5q2,-15.5 2.5,-17.5q0.5,-2 0.75,-3l0.25,-1l5,0.25q5,0.25 6,-0.75q1,-1 4,-1l3,0l3.5,2.75q3.5,2.75 5.5,13.25l2,10.5l1.75,1.5q1.75,1.5 4.25,2q2.5,0.5 3,-0.5l0.5,-1l0.25,4.25q0.25,4.25 3,5q2.75,0.75 4,2.25l1.25,1.5l-1.5,4.25q-1.5,4.25 -4.5,6.25q-3,2 -7.5,3.75l-4.5,1.75l-3,8l-3,8l-1,0.5z" id="path100"/>
  <path d="m632.25,132l-0.25,1l0,0.5l0,0.5l-1.5,0.5q-1.5,0.5 -4.5,0.5l-3,0l-1,4q-1,4 -1.75,5.5q-0.75,1.5 -0.75,4l0,2.5l-2,-1q-2,-1 -3.75,-0.5q-1.75,0.5 -3.25,4.25q-1.5,3.75 -1.75,4q-0.25,0.25 -1,5.5q-0.75,5.25 -2.25,5.5l-1.5,0.25l1,1q1,1 1,6.5l0,5.5l1,0q1,0 2.5,4.25q1.5,4.25 1.75,4.5q0.25,0.25 -1,9.25q-1.25,9 -2,12.5l-0.75,3.5l-0.25,1q-0.25,1 13.25,1l13.5,0l0.25,0.5l0.25,0.5l0.25,0.5l0.25,0.5l-14,0.25q-14,0.25 -18.25,2.5l-4.25,2.25l-0.5,11.5q-0.5,11.5 -1.25,12l-0.75,0.5l-0.25,-12q-0.25,-12 -1.5,-12.5q-1.25,-0.5 -3.25,-9l-2,-8.5l-7,0l-7,0l0,-1l0,-1l6,0q6,0 7,-1l1,-1l-2,-9.5l-2,-9.5l1,0q1,0 3.25,-12q2.25,-12 2,-14q-0.25,-2 -2.5,-1q-2.25,1 -4.5,3l-2.25,2l1,-6q1,-6 1.5,-6l0.5,0l1.5,0l1.5,0l1.5,-2.5q1.5,-2.5 1.75,-3.5q0.25,-1 1,-2q0.75,-1 1.25,-2.75l0.5,-1.75l3,1q3,1 4.5,1.75l1.5,0.75l0.5,-4q0.5,-4 5.5,-5q5,-1 5,-2l0,-1l9.25,1l9.25,1l-0.25,1z" id="path102"/>
 </g>
</svg>