<?xml version="1.0" encoding="UTF-8" standalone="no"?>
<!-- Generator: Adobe Illustrator 21.0.0, SVG Export Plug-In . SVG Version: 6.00 Build 0)  -->

<svg
   xmlns:dc="http://purl.org/dc/elements/1.1/"
   xmlns:cc="http://creativecommons.org/ns#"
   xmlns:rdf="http://www.w3.org/1999/02/22-rdf-syntax-ns#"
   xmlns:svg="http://www.w3.org/2000/svg"
   xmlns="http://www.w3.org/2000/svg"
   xmlns:sodipodi="http://sodipodi.sourceforge.net/DTD/sodipodi-0.dtd"
   xmlns:inkscape="http://www.inkscape.org/namespaces/inkscape"
   version="1.1"
   id="Washington_copy_1_"
   x="0px"
   y="0px"
   viewBox="0 0 254.6 160.3"
   style="enable-background:new 0 0 254.6 160.3;"
   xml:space="preserve"
   sodipodi:docname="geo_stats.svg"
   inkscape:version="0.92.2 (5c3e80d, 2017-08-06)"><metadata
     id="metadata14"><rdf:RDF><cc:Work
         rdf:about=""><dc:format>image/svg+xml</dc:format><dc:type
           rdf:resource="http://purl.org/dc/dcmitype/StillImage" /><dc:title></dc:title></cc:Work></rdf:RDF></metadata><defs
     id="defs12" /><sodipodi:namedview
     pagecolor="#ffffff"
     bordercolor="#666666"
     borderopacity="1"
     objecttolerance="10"
     gridtolerance="10"
     guidetolerance="10"
     inkscape:pageopacity="0"
     inkscape:pageshadow="2"
     inkscape:window-width="2560"
     inkscape:window-height="1361"
     id="namedview10"
     showgrid="false"
     inkscape:zoom="5.3260014"
     inkscape:cx="134.5654"
     inkscape:cy="71.351109"
     inkscape:window-x="-9"
     inkscape:window-y="-9"
     inkscape:window-maximized="1"
     inkscape:current-layer="Washington_copy_1_" /><style
     type="text/css"
     id="style2">
	.st0{fill:#BE3430;}
</style><g
     id="Washington_copy"><g
       id="g6"><path
         style="fill:#ffffff;fill-opacity:1"
         d="M 62.599609 0 L 65.099609 8.0996094 L 66.599609 12.300781 L 70.599609 11.300781 L 72.599609 17.699219 L 71.199219 24.199219 L 68.5 24.099609 L 67.300781 25.199219 L 68.199219 27.199219 L 76.099609 38.599609 L 81 46.900391 L 81.300781 49.5 L 76.699219 57.199219 L 76.199219 62.300781 L 74.900391 64.900391 L 74.699219 75.699219 L 70.900391 78.900391 L 68.300781 77.699219 L 67.800781 75.900391 L 68.400391 73.800781 L 68.199219 71.599609 L 67.300781 69.5 L 66.300781 65.599609 L 66.400391 60.199219 L 69.400391 56.800781 L 69.400391 54.099609 L 65.800781 43.199219 L 63.300781 40.800781 L 61.199219 40.099609 L 56.5 41.400391 L 50.300781 39.5 L 40.199219 39.099609 L 26.699219 35.699219 L 0 25.800781 L 0.59960938 32.5 L 0.40039062 37.599609 L 2.3007812 46.300781 L 9.5 57.800781 L 9.8007812 61.900391 L 11.099609 71.5 L 12.5 75.400391 L 14.300781 79.5 L 14.800781 85.5 L 15.5 88.300781 L 16.800781 93.400391 L 19.5 90.400391 L 20.800781 91.199219 L 21 91.900391 L 25 93.900391 L 20.599609 96.199219 L 20.199219 97.5 L 17.5 97.400391 L 16.599609 98.400391 L 18.699219 105.09961 L 21.400391 105.19922 L 23.599609 107.69922 L 22.400391 110.30078 L 22.900391 112.40039 L 23.599609 113.80078 L 20.400391 118.80078 L 19.599609 117.5 L 19.699219 116.30078 L 19.599609 114.40039 L 18.400391 111.30078 L 17.599609 111.09961 L 16.599609 111.80078 L 17 113.19922 L 17.5 115.40039 L 17.099609 118.09961 L 17.099609 123.90039 L 17.599609 125.69922 L 18.699219 125.80078 L 20.599609 125.59961 L 27.300781 127.69922 L 29.099609 126.69922 L 35.5 127.69922 L 39.099609 129.80078 L 40.199219 131.09961 L 44.800781 130.59961 L 45.400391 130.5 L 53.599609 133.69922 L 55.400391 138.09961 L 56.5 140.59961 L 56.400391 141.80078 L 56.300781 143 L 58.599609 154.59961 L 61.300781 157.69922 L 72 160.30078 L 83.300781 158.19922 L 90.599609 155.5 L 96.599609 154.69922 L 109.69922 155.09961 L 113.59961 158.30078 L 127.90039 152.69922 L 133 153.30078 L 135.5 154.19922 L 143.69922 153.19922 L 147.09961 151.5 L 151.19922 148.19922 L 155.09961 147.19922 L 160.09961 147 L 160.69922 146.69922 L 163.40039 145 L 166.59961 144.19922 L 169.40039 144.59961 L 173.80078 143.80078 L 177.30078 144.09961 L 180.59961 143.19922 L 184.69922 139.90039 L 254.59961 138.40039 L 254.23438 137.08203 L 253.09961 133.59961 L 254 131.09961 L 254 128.40039 L 251 125.40039 L 249.90039 121.5 L 250.90039 119.30078 L 251 0.099609375 L 249.80078 0.19921875 L 62.599609 0 z M 254.23438 137.08203 L 254.5 137.90039 L 254.09961 136.59961 L 254.23438 137.08203 z M 145.01758 33.433594 L 152.07227 33.433594 L 146.33008 56.511719 L 161.0957 56.511719 L 166.83789 33.433594 L 173.89258 33.433594 L 168.15039 56.511719 L 184.44727 56.511719 L 184.44727 63.894531 L 166.23633 63.894531 L 161.20508 84.457031 L 178.04883 84.457031 L 178.04883 91.839844 L 159.29102 91.839844 L 153.60352 114.86328 L 146.54883 114.86328 L 152.23633 91.839844 L 137.4707 91.839844 L 131.7832 114.86328 L 124.72852 114.86328 L 130.41602 91.839844 L 114.11914 91.839844 L 114.11914 84.457031 L 132.33008 84.457031 L 137.36133 63.894531 L 120.51758 63.894531 L 120.51758 56.511719 L 139.27539 56.511719 L 145.01758 33.433594 z M 144.36133 63.785156 L 139.2207 84.566406 L 154.20508 84.566406 L 159.3457 63.785156 L 144.36133 63.785156 z "
         id="polygon4" /></g></g><g
     aria-label="#"
     style="font-style:normal;font-weight:normal;font-size:40px;line-height:1.25;font-family:sans-serif;letter-spacing:0px;word-spacing:0px;fill:#000000;fill-opacity:1;stroke:none"
     id="text4556" /></svg>
