<?xml version="1.0" encoding="UTF-8" standalone="no"?>
<!-- Created with Inkscape (http://www.inkscape.org/) -->

<svg
   xmlns:dc="http://purl.org/dc/elements/1.1/"
   xmlns:cc="http://creativecommons.org/ns#"
   xmlns:rdf="http://www.w3.org/1999/02/22-rdf-syntax-ns#"
   xmlns:svg="http://www.w3.org/2000/svg"
   xmlns="http://www.w3.org/2000/svg"
   xmlns:sodipodi="http://sodipodi.sourceforge.net/DTD/sodipodi-0.dtd"
   xmlns:inkscape="http://www.inkscape.org/namespaces/inkscape"
   width="609.88885"
   height="233.72133"
   viewBox="0 0 161.36642 61.838769"
   version="1.1"
   id="svg8"
   inkscape:version="0.92.2 (5c3e80d, 2017-08-06)"
   sodipodi:docname="hash_to_hash.svg">
  <defs
     id="defs2" />
  <sodipodi:namedview
     id="base"
     pagecolor="#ffffff"
     bordercolor="#666666"
     borderopacity="1.0"
     inkscape:pageopacity="0.0"
     inkscape:pageshadow="2"
     inkscape:zoom="1.4"
     inkscape:cx="44.9734"
     inkscape:cy="68.782067"
     inkscape:document-units="mm"
     inkscape:current-layer="layer1"
     showgrid="false"
     fit-margin-top="0"
     fit-margin-left="0"
     fit-margin-right="0"
     fit-margin-bottom="0"
     inkscape:window-width="2560"
     inkscape:window-height="1361"
     inkscape:window-x="-9"
     inkscape:window-y="-9"
     inkscape:window-maximized="1"
     units="px" />
  <metadata
     id="metadata5">
    <rdf:RDF>
      <cc:Work
         rdf:about="">
        <dc:format>image/svg+xml</dc:format>
        <dc:type
           rdf:resource="http://purl.org/dc/dcmitype/StillImage" />
        <dc:title></dc:title>
      </cc:Work>
    </rdf:RDF>
  </metadata>
  <g
     inkscape:label="Layer 1"
     inkscape:groupmode="layer"
     id="layer1"
     transform="translate(-20.039774,-63.75008)">
    <path
       style="fill:#ffffff;stroke:#ffffff;stroke-width:0.38005674px;stroke-linecap:butt;stroke-linejoin:miter;stroke-opacity:1"
       d="m 114.20784,90.346162 2.30558,5.262142 c -5.25477,2.19831 -12.83518,3.61804 -19.386608,-1.13053 -13.518735,-9.798522 -25.202025,1.869658 -24.820977,2.57504 l 0.633924,6.109866 c -0.06355,-0.6125 10.071903,-13.597984 24.389698,-3.013 7.487203,5.53521 16.061483,2.90426 21.292833,0.27316 l 2.00123,4.56811 8.99072,-12.726716 z"
       id="path839"
       inkscape:connector-curvature="0" />
    <g
       aria-label="#"
       style="font-style:normal;font-weight:normal;font-size:10.58333302px;line-height:1.25;font-family:sans-serif;letter-spacing:0px;word-spacing:0px;fill:#ffffff;fill-opacity:1;stroke:none;stroke-width:0.26458332"
       id="text848"
       transform="matrix(2.4854686,0,0,2.4854686,-77.757327,-163.89276)">
      <path
         d="m 58.288138,101.33003 h -4.81831 l -1.331185,5.4405 h 4.456575 c 0.382716,0.59645 0.500401,1.23076 0,1.95337 h -4.963004 l -1.504818,6.09161 c -0.96172,0.5093 -1.39529,0.22638 -1.866553,0 l 1.504818,-6.09161 h -3.906738 l -1.504818,6.09161 c -0.95155,0.49405 -1.409501,0.2477 -1.866553,0 l 1.504818,-6.09161 h -4.311881 c -0.244556,-0.47644 -0.607561,-0.86827 0,-1.95337 h 4.81831 l 1.331185,-5.4405 h -4.456576 c -0.468057,-0.65112 -0.543842,-1.30224 0,-1.953367 h 4.963005 L 47.8557,93.270576 c 0.538909,-0.249826 1.080208,-0.492482 1.866553,0 l -1.519287,6.106087 h 3.906738 l 1.519287,-6.106087 c 0.678746,-0.339369 1.314151,-0.418695 1.866553,0 l -1.519287,6.106087 h 4.311881 c 0.407881,0.651127 0.351043,1.302247 0,1.953367 z m -6.641455,-0.0289 h -3.964616 l -1.360123,5.49838 h 3.964615 z"
         style="font-size:29.63333321px;fill:#ffffff;stroke-width:0.26458332"
         id="path850"
         inkscape:connector-curvature="0"
         sodipodi:nodetypes="cccccccccccccccccccccccccccccccccc" />
    </g>
    <g
       transform="matrix(2.4854686,0,0,2.4854686,35.824518,-163.89276)"
       id="g819"
       style="font-style:normal;font-weight:normal;font-size:10.58333302px;line-height:1.25;font-family:sans-serif;letter-spacing:0px;word-spacing:0px;fill:#ffffff;fill-opacity:1;stroke:none;stroke-width:0.26458332"
       aria-label="#">
      <path
         sodipodi:nodetypes="cccccccccccccccccccccccccccccccccc"
         inkscape:connector-curvature="0"
         id="path817"
         style="font-size:29.63333321px;fill:#ffffff;stroke-width:0.26458332"
         d="m 58.288138,101.33003 h -4.81831 l -1.331185,5.4405 h 4.456575 c 0.382716,0.59645 0.500401,1.23076 0,1.95337 h -4.963004 l -1.504818,6.09161 c -0.96172,0.5093 -1.39529,0.22638 -1.866553,0 l 1.504818,-6.09161 h -3.906738 l -1.504818,6.09161 c -0.95155,0.49405 -1.409501,0.2477 -1.866553,0 l 1.504818,-6.09161 h -4.311881 c -0.244556,-0.47644 -0.607561,-0.86827 0,-1.95337 h 4.81831 l 1.331185,-5.4405 h -4.456576 c -0.468057,-0.65112 -0.543842,-1.30224 0,-1.953367 h 4.963005 L 47.8557,93.270576 c 0.538909,-0.249826 1.080208,-0.492482 1.866553,0 l -1.519287,6.106087 h 3.906738 l 1.519287,-6.106087 c 0.678746,-0.339369 1.314151,-0.418695 1.866553,0 l -1.519287,6.106087 h 4.311881 c 0.407881,0.651127 0.351043,1.302247 0,1.953367 z m -6.641455,-0.0289 h -3.964616 l -1.360123,5.49838 h 3.964615 z" />
    </g>
  </g>
</svg>
